<svg xmlns="http://www.w3.org/2000/svg" width="880" height="880" viewBox="0 0 880 880"><rect width="880" height="880" rx="158.4" fill="#F7F1E3"/><g transform="translate(89.27 -27.27) scale(1.10991)"><path d="M168.7 622.2C169.3 621.3 170.3 617.6 171.3 614.7C172.4 611.7 173.7 608.3 175.1 604.6C176.5 600.9 178.1 596.8 179.7 592.6C181.3 588.4 183.1 583.9 184.8 579.4C186.6 574.9 188.4 570.2 190.2 565.7C192 561.1 193.8 556.5 195.5 552.1C197.3 547.7 198.9 543.4 200.5 539.3C202.1 535.2 203.5 531.3 205 527.3C206.5 523.4 208 519.3 209.6 515.4C211.1 511.4 212.8 507.4 214.5 503.4C216.1 499.5 217.9 495.5 219.6 491.5C221.3 487.6 223.1 483.6 224.8 479.7C226.6 475.7 228.3 471.7 229.9 467.7C231.6 463.7 233.2 459.7 234.7 455.7C236.2 451.7 237.6 447.7 239 443.6C240.3 439.6 241.6 435.6 242.9 431.5C244.2 427.5 245.5 423.5 246.8 419.5C248 415.5 249.3 411.5 250.5 407.5C251.8 403.5 253 399.5 254.2 395.5C255.5 391.6 256.7 387.6 258 383.7C259.2 379.7 260.4 375.8 261.7 371.9C263 368 264.3 364 265.5 360.1C266.8 356.1 268 352 269.3 348C270.5 344 271.7 339.9 272.9 335.9C274.2 331.9 275.4 327.9 276.6 323.9C277.8 320 279 316.1 280.2 312.2C281.5 308.4 282.7 304.6 284 300.9C285.3 297.2 286.6 293.6 287.9 290.1C289.3 286.6 290.6 283.2 292.1 279.9C293.5 276.6 295 273.4 296.6 270.2C298.1 267 299.8 263.8 301.4 260.7C303.1 257.6 304.8 254.5 306.5 251.5C308.2 248.4 309.9 245.4 311.6 242.5C313.3 239.5 315.1 236.5 316.7 233.6C318.4 230.7 320.1 227.8 321.7 225C323.3 222.1 324.8 219.2 326.3 216.5C327.8 213.8 329 211.4 330.5 208.9C331.9 206.5 333.4 204 334.9 201.6C336.3 199.1 337.9 196.7 339.3 194.3C340.8 191.9 342.2 189.6 343.6 187.2C344.9 184.8 346.3 182.5 347.4 180.1C348.6 177.6 349.8 175.2 350.7 172.8C351.6 170.3 352.5 167.7 353 165.2C353.6 162.7 354 160.2 354.2 157.8C354.4 155.3 354.5 152.9 354.4 150.5C354.3 148.1 354.1 145.7 353.7 143.4C353.4 141.1 352.9 138.8 352.3 136.6C351.7 134.4 351 132.3 350.1 130.2C349.3 128.2 348.4 126.2 347.3 124.3C346.3 122.4 345.2 120.6 343.9 118.9C342.7 117.2 341.3 115.5 339.8 114C338.2 112.5 336.5 111.1 334.8 109.9C333.1 108.6 331.2 107.5 329.3 106.5C327.5 105.5 325.5 104.6 323.5 103.8C321.6 102.9 319.5 102.2 317.5 101.5C315.5 100.9 313.4 100.3 311.3 99.7C309.3 99.2 307.2 98.7 305.1 98.3C303 97.9 301 97.5 298.9 97.1C296.7 96.8 294.5 96.5 292.3 96.3C290.1 96 287.7 95.8 285.4 95.7C283.1 95.5 280.7 95.5 278.3 95.5C275.9 95.5 273.4 95.5 271 95.7C268.5 95.8 266 96.1 263.5 96.4C261.1 96.7 258.6 97.1 256.1 97.6C253.7 98.1 251.2 98.7 248.8 99.4C246.3 100.1 243.9 100.8 241.4 101.6C238.9 102.5 236.4 103.4 233.8 104.4C231.3 105.3 228.7 106.4 226.2 107.5C223.6 108.7 221.1 109.9 218.6 111.2C216.1 112.5 213.6 113.9 211.2 115.3C208.8 116.8 206.5 118.3 204.2 119.9C202 121.5 199.8 123.2 197.7 125C195.7 126.8 193.7 128.7 191.8 130.6C189.9 132.6 188.1 134.7 186.3 136.8C184.6 138.9 182.9 141.2 181.3 143.4C179.6 145.7 178.1 148 176.6 150.3C175.1 152.7 173.7 155.1 172.4 157.5C171.1 159.9 169.8 162.3 168.6 164.7C167.4 167.1 166.2 169.5 165.1 172C164 174.4 163 176.8 161.9 179.3C160.9 181.8 159.9 184.4 159 187C158.1 189.6 157.2 192.3 156.4 194.9C155.6 197.6 154.8 200.3 154.2 203C153.5 205.6 152.9 208.3 152.4 211C151.8 213.7 151.4 216.3 151 219C150.7 221.6 150.4 224.2 150.3 226.7C150.1 229.3 150.1 231.8 150.1 234.3C150.1 236.8 150.3 239.4 150.5 241.9C150.8 244.4 151.1 246.9 151.5 249.4C151.9 251.9 152.4 254.3 153 256.7C153.5 259.1 154.1 261.5 154.8 263.8C155.4 266.1 156.2 268.3 156.9 270.4C157.7 272.6 158.5 274.6 159.4 276.6C160.3 278.5 161.2 280.4 162.2 282.2C163.2 283.9 164.3 285.7 165.5 287.3C166.6 289 167.8 290.5 169.1 292C170.4 293.5 171.8 294.9 173.2 296.3C174.5 297.6 176 298.8 177.5 300C178.9 301.2 180.5 302.2 182 303.2C183.5 304.2 185.1 305.1 186.7 305.9C188.3 306.7 189.8 307.4 191.5 308C193.2 308.6 195 309.1 196.8 309.5C198.6 309.9 200.4 310.2 202.3 310.4C204.2 310.6 206.1 310.8 208 310.8C209.9 310.9 211.9 310.8 213.7 310.7C215.6 310.6 217.5 310.4 219.3 310.1C221.1 309.8 222.9 309.4 224.6 308.9C226.3 308.4 227.9 307.9 229.4 307.2C231 306.5 232.5 305.7 233.9 304.7C235.4 303.8 236.8 302.7 238.2 301.5C239.5 300.4 240.9 299.1 242.1 297.8C243.4 296.5 244.6 295.1 245.7 293.6C246.8 292.2 247.8 290.7 248.7 289.2C249.7 287.6 250.5 286.1 251.2 284.5C251.9 282.9 252.5 281.4 252.9 279.7C253.4 278.1 253.7 276.5 253.9 274.8C254.1 273.1 254.1 271.3 254.1 269.5C254.1 267.7 253.9 265.8 253.7 263.9C253.5 262 253.2 260.1 252.7 258.3C252.3 256.5 251.8 254.6 251.2 252.9C250.6 251.2 249.9 249.5 249.1 247.9C248.3 246.3 247.5 244.9 246.4 243.5C245.4 242.2 244.3 241.1 243 240C241.7 238.9 240.1 238 238.6 237.1C237 236.3 235.3 235.5 233.6 234.8C231.8 234.1 230 233.6 228.2 233.1C226.4 232.6 224.5 232.1 222.7 231.8C220.9 231.5 219 231.3 217.3 231.1C215.6 231 213.9 231 212.3 231C210.8 231.1 209.3 231.3 207.9 231.6C206.4 231.9 205 232.4 203.6 233C202.2 233.5 200.8 234.3 199.5 235C198.2 235.8 196.9 236.7 195.7 237.7C194.5 238.6 193.4 239.6 192.3 240.7C191.2 241.8 190.2 243 189.3 244.2C188.4 245.3 187.6 246.6 186.9 247.8C186.1 249.1 185.5 250.4 185 251.7C184.5 253.1 184.2 254.5 183.9 255.9C183.6 257.4 183.4 258.9 183.3 260.4C183.2 262 183.2 263.6 183.2 265.2C183.3 266.8 183.4 268.4 183.6 270C183.8 271.7 184.1 273.4 184.4 275C184.8 276.7 185.2 278.4 185.6 280C186.1 281.7 186.6 283.3 187.2 285C187.8 286.7 188.5 288.4 189.3 290.2C190.1 292 191.1 293.8 192.1 295.6C193 297.5 194.1 299.3 195.2 301.2C196.3 303 197.5 304.9 198.7 306.7C199.8 308.5 201 310.2 202.2 311.9C203.4 313.6 204.6 315.3 205.7 316.8C206.8 318.4 207.9 319.8 209 321.1C210 322.5 211 323.7 212.1 324.9C213.1 326.1 214.2 327.2 215.2 328.2C216.3 329.3 217.3 330.2 218.3 331.1C219.4 332.1 220.4 332.9 221.4 333.7C222.4 334.5 223.4 335.3 224.4 336C225.4 336.7 226.4 337.4 227.3 338.1C228.2 338.7 229.1 339.3 230 340C230.9 340.6 231.8 341.3 232.8 341.9C233.7 342.5 234.7 343.2 235.7 343.7C236.6 344.3 237.6 344.8 238.6 345.3C239.5 345.8 240.4 346.3 241.3 346.7C242.2 347.2 243 347.6 243.8 347.9C244.6 348.3 245.3 348.7 246 349C246.6 349.3 246.9 349.5 247.7 349.7C248.4 350 249.5 351 250.5 350.5C251.5 349.9 253.4 347.7 253.5 346.5C253.6 345.4 251.7 344.2 251 343.6C250.3 343 249.9 343.1 249.3 342.8C248.6 342.5 247.9 342.2 247.2 341.8C246.4 341.5 245.6 341.1 244.8 340.7C244 340.4 243.1 339.9 242.3 339.5C241.4 339.1 240.5 338.6 239.6 338.1C238.7 337.6 237.8 337.1 237 336.6C236.1 336.1 235.3 335.5 234.4 334.9C233.5 334.3 232.6 333.6 231.6 333C230.7 332.4 229.8 331.7 228.8 331.1C227.9 330.4 226.9 329.7 226 329C225 328.3 224 327.6 223.1 326.8C222.1 326 221.2 325.2 220.2 324.3C219.2 323.4 218.3 322.4 217.3 321.4C216.3 320.4 215.4 319.3 214.4 318.1C213.4 316.9 212.4 315.5 211.3 314.1C210.2 312.6 209 311 207.9 309.4C206.7 307.8 205.6 306.1 204.4 304.4C203.3 302.7 202.1 300.9 201 299.1C199.9 297.4 198.9 295.6 197.9 293.8C196.9 292.1 196 290.3 195.2 288.7C194.4 287 193.7 285.5 193.1 283.9C192.6 282.3 192.1 280.9 191.6 279.3C191.2 277.8 190.8 276.3 190.4 274.8C190.1 273.2 189.8 271.7 189.6 270.2C189.4 268.7 189.2 267.2 189.1 265.8C189 264.4 189 262.9 189.1 261.6C189.1 260.3 189.2 259 189.4 257.7C189.6 256.5 189.9 255.4 190.2 254.3C190.6 253.2 191 252.3 191.5 251.2C192 250.2 192.6 249.2 193.4 248.2C194.1 247.2 194.9 246.2 195.8 245.2C196.6 244.3 197.6 243.4 198.6 242.5C199.6 241.7 200.7 240.9 201.7 240.2C202.8 239.5 203.9 238.9 205.1 238.4C206.2 237.9 207.3 237.4 208.4 237.1C209.5 236.8 210.5 236.7 211.8 236.6C213.1 236.5 214.5 236.5 216 236.6C217.4 236.7 219.1 236.8 220.7 237.1C222.3 237.4 224 237.7 225.7 238.2C227.3 238.6 229 239.1 230.6 239.7C232.1 240.3 233.7 241 235 241.7C236.4 242.4 237.6 243.2 238.7 244C239.7 244.8 240.5 245.5 241.3 246.5C242.1 247.5 242.7 248.5 243.4 249.8C244 251 244.6 252.4 245.1 253.9C245.7 255.4 246.1 257 246.5 258.6C246.9 260.2 247.1 261.9 247.3 263.6C247.5 265.3 247.7 267 247.7 268.6C247.7 270.2 247.7 271.8 247.5 273.2C247.4 274.6 247.1 275.9 246.8 277.2C246.5 278.5 246 279.7 245.5 280.9C244.9 282.2 244.2 283.5 243.5 284.8C242.7 286.1 241.8 287.4 240.9 288.7C239.9 289.9 238.9 291.2 237.8 292.3C236.7 293.5 235.6 294.6 234.4 295.6C233.2 296.6 232 297.6 230.8 298.4C229.6 299.2 228.5 299.9 227.3 300.5C226 301.1 224.9 301.5 223.5 301.9C222.2 302.4 220.7 302.7 219.1 303C217.6 303.2 216 303.4 214.3 303.5C212.7 303.7 211 303.7 209.3 303.6C207.6 303.6 205.9 303.4 204.3 303.2C202.6 303 201 302.7 199.4 302.4C197.9 302 196.4 301.6 195.1 301.1C193.7 300.5 192.4 300 191.1 299.3C189.8 298.6 188.5 297.8 187.2 297C185.9 296.1 184.6 295.2 183.4 294.2C182.2 293.2 180.9 292.1 179.8 291C178.6 289.8 177.4 288.6 176.3 287.3C175.2 286 174.2 284.6 173.2 283.2C172.2 281.8 171.3 280.3 170.4 278.8C169.6 277.3 168.8 275.7 168 274C167.3 272.3 166.5 270.5 165.8 268.6C165.1 266.7 164.4 264.6 163.8 262.6C163.2 260.5 162.6 258.3 162.1 256.1C161.6 253.9 161.1 251.6 160.8 249.4C160.4 247.1 160.2 244.8 160 242.5C159.8 240.2 159.7 237.9 159.7 235.6C159.7 233.4 159.8 231.2 160 228.9C160.2 226.6 160.5 224.3 160.9 222C161.3 219.6 161.8 217.2 162.3 214.8C162.9 212.3 163.5 209.8 164.3 207.4C165 204.9 165.8 202.4 166.6 199.9C167.5 197.5 168.4 195 169.3 192.6C170.3 190.2 171.3 187.8 172.3 185.4C173.4 183.1 174.4 180.9 175.5 178.6C176.6 176.3 177.8 174.1 179 171.9C180.2 169.6 181.4 167.4 182.7 165.1C184 162.9 185.3 160.7 186.7 158.6C188.1 156.4 189.5 154.3 190.9 152.2C192.4 150.2 193.9 148.2 195.4 146.2C197 144.3 198.6 142.5 200.2 140.8C201.8 139 203.5 137.4 205.2 135.9C207 134.4 208.8 133 210.7 131.6C212.6 130.2 214.7 128.9 216.8 127.6C218.9 126.4 221.1 125.2 223.4 124C225.6 122.9 227.9 121.8 230.3 120.8C232.6 119.8 235 118.9 237.3 118C239.7 117.1 242 116.3 244.3 115.6C246.6 114.9 248.9 114.2 251.2 113.7C253.4 113.1 255.4 112.6 257.6 112.2C259.7 111.8 261.8 111.4 264 111.2C266.2 110.9 268.3 110.7 270.5 110.6C272.6 110.5 274.8 110.4 276.9 110.4C279.1 110.4 281.2 110.5 283.3 110.6C285.4 110.7 287.4 110.8 289.4 111C291.4 111.2 293.4 111.5 295.3 111.8C297.2 112.1 299 112.5 300.8 112.9C302.6 113.3 304.5 113.7 306.3 114.2C308 114.7 309.8 115.2 311.5 115.8C313.2 116.4 314.9 117 316.4 117.7C318 118.4 319.5 119.1 320.8 119.9C322.2 120.6 323.5 121.4 324.6 122.3C325.8 123.1 326.8 124 327.7 124.9C328.6 125.8 329.3 126.6 330.1 127.7C330.8 128.8 331.6 130 332.3 131.3C333 132.6 333.6 134 334.2 135.4C334.8 136.9 335.3 138.4 335.7 140C336.2 141.6 336.5 143.2 336.8 144.9C337.1 146.6 337.3 148.3 337.4 150C337.5 151.7 337.5 153.4 337.3 155.2C337.2 156.9 337 158.6 336.6 160.3C336.2 162 335.8 163.5 335.1 165.3C334.4 167.1 333.6 168.9 332.6 170.8C331.6 172.8 330.4 174.8 329.1 176.9C327.9 178.9 326.5 181.1 325 183.4C323.6 185.6 322 187.9 320.4 190.3C318.8 192.7 317.2 195.2 315.5 197.8C313.9 200.4 312.2 203.2 310.7 205.8C309.1 208.5 307.7 211.1 306.1 213.8C304.5 216.5 302.8 219.2 301.1 222C299.4 224.8 297.6 227.7 295.8 230.7C294 233.6 292.2 236.7 290.4 239.8C288.6 242.9 286.7 246 284.9 249.3C283.1 252.6 281.3 255.9 279.6 259.3C277.9 262.7 276.2 266.2 274.7 269.8C273.1 273.4 271.6 277 270.1 280.8C268.7 284.5 267.3 288.3 266 292.2C264.7 296 263.4 300 262.2 303.9C261 307.9 259.8 311.9 258.6 315.9C257.4 320 256.2 324 255.1 328C253.9 332.1 252.8 336.1 251.6 340.1C250.5 344.1 249.3 348.1 248.2 352.1C247 356.1 245.8 360 244.6 363.9C243.4 367.9 242.1 371.9 240.9 375.8C239.8 379.8 238.6 383.8 237.4 387.8C236.2 391.8 235 395.8 233.8 399.8C232.6 403.7 231.4 407.7 230.2 411.7C229 415.7 227.8 419.7 226.5 423.6C225.2 427.6 224 431.6 222.7 435.6C221.4 439.5 220.1 443.5 218.8 447.5C217.5 451.5 216.2 455.5 214.9 459.5C213.6 463.6 212.3 467.7 211.1 471.7C209.8 475.8 208.5 479.9 207.1 484C205.8 488.1 204.5 492.3 203.1 496.4C201.8 500.5 200.4 504.6 199 508.7C197.6 512.7 196 516.8 194.6 520.9C193.2 524.9 191.9 528.9 190.6 533.1C189.2 537.3 188 541.7 186.8 546.2C185.5 550.7 184.2 555.5 183 560.2C181.8 565 180.5 569.9 179.4 574.6C178.2 579.3 177 584.1 175.9 588.5C174.8 593 173.8 597.4 172.8 601.3C171.8 605.3 170.8 609 170 612.2C169.2 615.4 167.9 618.8 167.7 620.5C167.5 622.2 168.1 623.2 168.7 622.2Z" fill="#2C2A24"/><path d="M190.3 460.4C190.6 460.5 193.2 458.6 195.1 457.6C197 456.5 199.2 455.3 201.6 454C203.9 452.7 206.5 451.2 209.2 449.7C211.8 448.1 214.6 446.4 217.4 444.6C220.2 442.8 223 440.7 226 438.9C229 437 232 435.2 235.2 433.5C238.3 431.8 241.4 430.3 244.8 428.8C248.1 427.3 251.5 426 255.1 424.5C258.8 423.1 262.6 421.6 266.5 420.2C270.5 418.7 274.5 417.3 278.7 415.9C282.8 414.5 287.1 413.1 291.4 411.8C295.6 410.6 300 409.4 304.4 408.3C308.7 407.2 313.1 406.2 317.5 405.4C321.8 404.6 326.1 403.9 330.5 403.4C334.8 402.9 339 402.6 343.4 402.4C347.9 402.1 352.5 402 357.2 402C361.8 402 366.6 402 371.4 402.2C376.2 402.3 381 402.6 385.8 402.9C390.6 403.2 395.4 403.6 400 404.1C404.7 404.6 409.4 405.2 413.8 405.8C418.2 406.5 422.6 407.2 426.7 408C430.9 408.9 434.6 409.7 438.5 410.8C442.4 412 446.3 413.4 450.2 415C454 416.6 458 418.5 461.7 420.5C465.5 422.4 469.2 424.6 472.7 426.6C476.3 428.7 479.7 430.9 482.9 432.9C486.1 435 489.1 437 491.8 438.8C494.5 440.6 497.1 442.6 499.2 443.7C501.2 444.8 504.4 445.8 504.3 445.5C504.2 445.1 500.8 443.2 498.6 441.7C496.4 440.1 493.9 438.2 491.2 436.2C488.6 434.1 485.6 431.8 482.5 429.5C479.4 427.2 476 424.7 472.6 422.3C469.1 419.9 465.5 417.4 461.8 415.2C458.1 412.9 454.2 410.6 450.3 408.6C446.5 406.6 442.5 404.8 438.5 403.3C434.4 401.7 430.4 400.5 426.2 399.3C421.9 398.1 417.4 397 412.8 396C408.2 395 403.4 394.1 398.6 393.3C393.8 392.6 388.8 391.9 383.9 391.4C378.9 390.9 373.9 390.5 369 390.3C364 390 359 389.9 354.2 390C349.4 390.1 344.6 390.3 339.9 390.6C335.3 391 330.8 391.5 326.2 392.2C321.6 392.9 317 393.8 312.5 394.9C307.9 395.9 303.3 397.2 298.9 398.5C294.4 399.8 289.9 401.3 285.6 402.8C281.2 404.3 277 405.9 272.8 407.5C268.7 409.1 264.6 410.7 260.7 412.4C256.8 414 253.1 415.6 249.5 417.2C245.9 418.8 242.5 420.3 239.2 422C235.8 423.7 232.4 425.6 229.2 427.4C226 429.3 222.8 431.3 219.8 433.3C216.8 435.3 213.9 437.3 211.2 439.4C208.6 441.5 206.2 443.7 204 445.8C201.8 447.9 199.8 450 198 451.9C196.1 453.7 194.3 455.5 193 456.9C191.7 458.3 189.9 460.3 190.3 460.4Z" fill="#2C2A24"/><path d="M249.7 470.5C250.4 471.2 254.1 473.1 256.9 475C259.7 476.8 263 479.2 266.5 481.7C270 484.1 273.9 486.9 277.9 489.7C281.9 492.5 286.2 495.4 290.6 498.2C294.9 501 299.5 503.8 304 506.3C308.6 508.8 313.2 511.3 317.8 513.2C322.4 515.1 327.1 516.7 331.6 517.8C336.2 519 340.6 519.5 345.2 519.8C349.8 520.2 354.6 520.2 359.4 520C364.1 519.8 369 519.2 373.8 518.5C378.7 517.8 383.6 516.9 388.3 515.8C393.1 514.7 397.9 513.5 402.5 512.1C407.2 510.8 411.7 509.3 416.1 507.7C420.5 506.2 424.7 504.6 428.8 502.9C432.9 501.2 436.8 499.6 440.8 497.5C444.8 495.4 448.9 492.9 452.8 490.4C456.7 487.9 460.7 485.1 464.4 482.3C468.1 479.5 471.9 476.6 475.3 473.7C478.6 470.7 481.8 467.6 484.7 464.7C487.6 461.9 490.2 459 492.6 456.5C495 454.1 497.8 451.6 499.1 450C500.5 448.5 501.5 447 500.7 447.3C499.8 447.6 496.6 450.2 494 452C491.4 453.7 488.4 455.8 485.2 458C482.1 460.2 478.6 462.6 475.1 465.1C471.7 467.6 468 470.4 464.4 473C460.7 475.6 457 478.5 453.2 481C449.5 483.4 445.6 485.8 441.8 487.9C438 489.9 434.3 491.5 430.4 493.1C426.5 494.6 422.5 495.9 418.3 497.3C414.1 498.6 409.7 500 405.3 501.2C400.9 502.4 396.3 503.6 391.7 504.6C387.1 505.6 382.5 506.5 377.9 507.3C373.3 508.1 368.6 508.7 364.1 509.2C359.6 509.6 355.1 510 350.8 510.1C346.4 510.2 342.3 510.2 338.1 509.8C333.9 509.4 330.1 508.8 325.7 507.7C321.4 506.6 316.8 505 312.3 503.2C307.7 501.5 303 499.2 298.4 497C293.8 494.8 289.2 492.3 284.8 489.8C280.5 487.4 276.2 484.9 272.3 482.6C268.4 480.3 264.7 477.9 261.5 476C258.2 474 254.9 471.8 252.9 470.9C251 470 249.1 469.9 249.7 470.5Z" fill="#2C2A24"/><path d="M256 464.3C256.9 464.3 260.8 463.9 263.8 463.7C266.8 463.5 270.5 463.3 274.3 463C278.1 462.7 282.4 462.5 286.8 462.2C291.2 461.9 295.9 461.6 300.6 461.3C305.3 461.1 310.2 460.8 314.9 460.5C319.7 460.2 324.6 460 329.2 459.7C333.8 459.5 338.3 459.2 342.6 459C347 458.8 351 458.7 355.3 458.5C359.6 458.3 364 458.1 368.4 457.9C372.9 457.8 377.4 457.6 381.8 457.4C386.2 457.2 390.7 457 395.1 456.7C399.4 456.5 403.7 456.3 407.9 456C412.1 455.8 416.1 455.5 420 455.2C423.9 454.9 427.6 454.6 431.1 454.3C434.6 454 437.8 453.7 441 453.3C444.2 453 447.3 452.6 450.2 452.2C453.2 451.9 456.1 451.5 458.9 451.1C461.6 450.8 464.2 450.4 466.7 450.1C469.2 449.7 471.5 449.4 473.7 449.1C475.9 448.7 477.9 448.5 479.7 448.2C481.5 448 483.6 447.8 484.6 447.6C485.7 447.3 486.7 446.8 486.2 446.8C485.7 446.7 483.4 447 481.7 447.2C480.1 447.3 478.2 447.5 476.1 447.6C474.1 447.8 471.8 448 469.5 448.1C467.1 448.3 464.5 448.5 461.9 448.6C459.2 448.8 456.4 449 453.5 449.1C450.6 449.3 447.6 449.5 444.5 449.6C441.4 449.8 438.2 449.9 434.9 450.1C431.5 450.2 428 450.4 424.3 450.5C420.6 450.7 416.6 450.8 412.6 451C408.5 451.1 404.3 451.3 400 451.5C395.7 451.7 391.3 451.9 386.9 452.2C382.5 452.4 378 452.6 373.5 452.9C369.1 453.2 364.6 453.5 360.3 453.8C355.9 454.2 351.7 454.5 347.4 454.9C343.1 455.2 338.9 455.6 334.5 456C330 456.5 325.2 456.9 320.5 457.4C315.8 457.8 310.9 458.3 306.1 458.8C301.4 459.3 296.6 459.8 292 460.2C287.5 460.7 283.1 461.1 279 461.5C274.9 461.9 271 462.3 267.6 462.7C264.3 463 260.6 463.2 258.7 463.5C256.8 463.7 255.2 464.3 256 464.3Z" fill="#2C2A24"/><path d="M161.8 427.9C161.1 429.1 159.9 432.5 158.5 435.4C157.1 438.3 155.3 441.7 153.5 445.3C151.6 449 149.5 453 147.4 457.2C145.3 461.3 143.1 465.8 141.1 470.3C139 474.9 136.9 479.6 135.2 484.3C133.4 488.9 131.7 493.7 130.5 498.4C129.2 503 128.2 507.5 127.7 512.1C127.3 516.7 127.3 521.1 127.6 525.8C128 530.5 128.8 535.5 129.7 540.5C130.7 545.4 132 550.6 133.3 555.6C134.6 560.5 136.2 565.6 137.7 570.3C139.1 575 140.7 579.7 142.2 584C143.6 588.2 145 592.3 146.2 595.9C147.3 599.4 148.5 603.7 149.1 605.2C149.6 606.7 149.9 606.7 149.6 605.1C149.3 603.5 148.2 599.2 147.3 595.5C146.4 591.9 145.3 587.7 144.3 583.4C143.2 579 142.1 574.2 141 569.4C140 564.6 138.9 559.5 138 554.5C137.1 549.5 136.2 544.4 135.6 539.5C135 534.7 134.6 529.8 134.4 525.4C134.2 520.9 134.3 517.1 134.7 512.8C135.1 508.6 135.8 504.4 136.8 499.9C137.8 495.5 139 490.7 140.4 486.1C141.8 481.4 143.4 476.6 145 472C146.6 467.3 148.4 462.7 150.1 458.4C151.8 454.1 153.5 449.8 155 446.1C156.6 442.3 158.1 438.7 159.3 435.7C160.5 432.7 161.8 429.4 162.2 428.1C162.7 426.8 162.4 426.7 161.8 427.9Z" fill="#2C2A24"/><path d="M171.8 544.9C171.2 546.4 170 550.4 168.7 553.8C167.3 557.3 165.5 561.4 163.6 565.8C161.7 570.2 159.5 575 157.5 580C155.4 585 153.2 590.4 151.2 595.8C149.3 601.2 147.3 606.8 145.8 612.4C144.2 618 142.8 623.7 142 629.2C141.2 634.7 140.7 640.1 141 645.4C141.3 650.7 142.3 655.8 143.8 661.1C145.3 666.5 147.6 672 150 677.5C152.4 682.9 155.3 688.5 158.2 693.9C161.2 699.3 164.4 704.7 167.6 709.7C170.7 714.8 173.9 719.8 176.9 724.3C179.8 728.9 182.7 733.2 185.1 737C187.5 740.8 190 745.4 191.1 747C192.3 748.6 192.5 748.5 191.7 746.7C190.9 744.9 188.4 740.2 186.4 736.2C184.3 732.3 181.8 727.7 179.4 722.9C176.9 718.1 174.2 712.8 171.7 707.5C169.1 702.2 166.4 696.5 164.1 691C161.7 685.5 159.4 679.8 157.5 674.4C155.6 669.1 153.9 663.7 152.7 658.8C151.6 653.8 150.8 649.6 150.5 644.9C150.2 640.1 150.4 635.4 150.8 630.2C151.2 625.1 152.1 619.6 153.1 614.1C154 608.7 155.4 603 156.7 597.5C158.1 592 159.7 586.5 161.1 581.3C162.6 576.2 164.3 571.1 165.7 566.6C167.1 562 168.5 557.8 169.6 554.2C170.7 550.6 171.9 546.6 172.2 545.1C172.6 543.5 172.4 543.5 171.8 544.9Z" fill="#2C2A24"/><path d="M259.7 532.5C258.5 531.6 258.3 536.4 257.6 538.7C256.9 541 256.2 543.6 255.4 546.3C254.7 549 253.9 552 253 555C252.1 558.1 251.1 561.3 250 564.5C248.9 567.7 247.7 571 246.4 574.1C245 577.3 243.5 580.4 241.9 583.4C240.4 586.3 239 589.1 237.2 591.9C235.4 594.8 233.6 597.4 231.3 600.5C228.9 603.5 226 606.9 223 610.1C220 613.3 216.6 616.7 213.1 619.9C209.7 623.1 205.8 626.1 202.4 629.2C198.9 632.3 195.5 635.4 192.4 638.4C189.4 641.4 186.6 644.4 184.1 647C181.7 649.6 178.6 652.4 177.7 653.7C176.7 655 177 655.4 178.5 654.7C180 654.1 183.4 651.7 186.4 649.9C189.5 648.1 193.1 646.1 196.7 643.8C200.3 641.5 204.2 638.9 208 636.1C211.7 633.3 215.5 630.1 219.3 627.1C223 624.1 226.9 621.1 230.5 618.2C234.1 615.2 237.7 612.3 240.8 609.4C244 606.5 246.8 603.7 249.3 600.7C251.8 597.6 254 594.4 256 591C257.9 587.6 259.5 584 261.1 580.6C262.7 577.1 264.1 573.5 265.4 570.1C266.8 566.8 268 563.4 269.1 560.2C270.2 557.1 271.2 554.1 272.1 551.4C273 548.7 273.9 546.2 274.6 544.2C275.2 542.2 278 539.5 276.3 539.5C274.6 539.5 267.3 545.5 264.5 544.3C261.8 543.1 260.9 533.4 259.7 532.5Z" fill="#2C2A24"/></g></svg>
